# xmcd CD database file
#
# Track frame offsets:
#	150
#	13214
#	26162
#	48723
#	69668
#	78337
#	96142
#	114928
#	137745
#	159907
#	181498
#	196708
#
# Disc length: 2854 seconds
#
# Revision: 0
# Processed by: cddbd v1.5.2PL0 Copyright (c) Steve Scherf et al.
# Submitted via: CDex 1.51
#
DISCID=9b0b240c
DTITLE=Plínio Oliveira - Jerusalém - 12 fantasias místicas
DYEAR=2000
DGENRE=New Age
TTITLE0=Leite Mel
TTITLE1=Jerusalém
TTITLE2=Estrelas do deserto
TTITLE3=A Dor de Alá
TTITLE4=Crianças Brincando
TTITLE5=O Pranto de Jeová
TTITLE6=A Criação do Mundo
TTITLE7=Flores do Chão
TTITLE8=Sonhos
TTITLE9=Mãe
TTITLE10=Jesus
TTITLE11=Glória
EXTD=YEAR: 2000
EXTT0=
EXTT1=
EXTT2=
EXTT3=
EXTT4=
EXTT5=
EXTT6=
EXTT7=
EXTT8=
EXTT9=
EXTT10=
EXTT11=
PLAYORDER=
